<svg width="158" height="86" fill="none" xmlns="http://www.w3.org/2000/svg"><path d="M157.923 4.54a.5.5 0 01-.156.689l-3.804 2.404a.5.5 0 11-.534-.846l3.381-2.136-2.136-3.382a.5.5 0 11.845-.534l2.404 3.804zM1 80.805c.1-.49.101-.49.102-.49l.003.001.014.003.055.011a65.018 65.018 0 001.088.21c.76.144 1.871.346 3.282.583a233.42 233.42 0 0011.607 1.639c9.547 1.107 22.105 1.979 34.186 1.045 12.098-.936 23.628-3.677 31.195-9.72 3.772-3.014 6.558-6.847 7.948-11.699 1.392-4.857 1.394-10.771-.464-17.958l.968-.25c1.892 7.314 1.91 13.415.458 18.484-1.454 5.073-4.37 9.076-8.286 12.204-7.809 6.237-19.59 8.996-31.743 9.936-12.17.94-24.799.062-34.377-1.05A234.34 234.34 0 015.378 82.11a171.43 171.43 0 01-4.175-.754 47.356 47.356 0 01-.302-.06c-.001 0-.002 0 .099-.49zM90.016 44.43c-3.777-14.602-1.472-24.509 4.247-31.093C99.958 6.78 108.946 3.63 118.305 2.31c9.371-1.32 19.199-.817 26.672.014 3.739.415 6.895.913 9.116 1.307a105.69 105.69 0 013.277.634l.178.039.046.01a.507.507 0 00.015.003l-.109.488-.111.488h-.002l-.011-.003-.043-.01a105.156 105.156 0 00-3.414-.664 142.432 142.432 0 00-9.052-1.298c-7.433-.826-17.168-1.322-26.422-.018-9.266 1.306-17.966 4.405-23.427 10.692-5.437 6.26-7.757 15.79-4.034 30.188l-.968.25z" fill="#FA7846"/></svg>