<svg width="25" height="25" viewBox="0 0 25 25" fill="none" xmlns="http://www.w3.org/2000/svg">
<g opacity="0.8">
<path d="M1.56226 2.7978C1.323 2.87592 0.912842 3.29585 0.8396 3.54487C0.756592 3.83784 0.756592 18.0371 0.8396 18.33C0.917725 18.5986 1.323 19.0039 1.59155 19.082C1.7478 19.1259 3.29566 19.1406 8.12476 19.1406H14.4529L14.6287 19.497C14.8728 19.9853 15.1609 20.371 15.5857 20.791C16.0349 21.2304 16.3132 21.4355 16.8455 21.6992C18.3201 22.4414 19.9363 22.4462 21.406 21.7236C23.3689 20.7519 24.5066 18.5498 24.1502 16.416C24.0476 15.8203 23.9109 15.3955 23.6423 14.8681C23.3884 14.3603 23.1785 14.0722 22.7439 13.6328C22.324 13.208 21.9382 12.9199 21.45 12.6757L21.0935 12.4999V8.12495C21.0935 4.88276 21.0789 3.69624 21.0349 3.55463C21.0056 3.44721 20.8836 3.2519 20.7664 3.12495C20.3855 2.70014 21.2839 2.73432 10.9177 2.7392C4.36987 2.74409 1.68433 2.75874 1.56226 2.7978ZM20.1902 3.63764L20.3123 3.75483V8.00776V12.2558L20.1902 12.2265C20.1218 12.2119 19.9509 12.1826 19.8093 12.163L19.5554 12.1337L19.531 8.31049L19.5066 4.48237L19.3894 4.3896C19.2771 4.29682 19.072 4.29682 10.9275 4.29682H2.58276L2.46558 4.41889L2.34351 4.53608V10.9277C2.34351 17.1533 2.34839 17.3242 2.43628 17.4365L2.52905 17.5537L8.31031 17.5781L14.0867 17.6025L14.116 17.8564C14.1355 17.998 14.1648 18.1689 14.1795 18.2373L14.2087 18.3593H8.00757H1.80151L1.68433 18.2373L1.56226 18.1201V10.9374V3.75483L1.68433 3.63764L1.80151 3.51557H10.9373H20.073L20.1902 3.63764ZM18.7498 8.5937C18.7498 11.3671 18.7351 12.1142 18.6912 12.1289C18.657 12.1435 18.5252 12.163 18.3982 12.1777L18.1687 12.207L16.5476 10.2392C15.6589 9.1601 14.8484 8.20307 14.7507 8.11518C14.531 7.91499 14.1257 7.79292 13.8279 7.83198C13.3347 7.90034 13.2908 7.94428 11.2253 10.4492C10.1658 11.7382 9.28687 12.7831 9.27222 12.7783C9.25269 12.7734 8.78394 12.207 8.23218 11.5234C7.67554 10.8398 7.14331 10.2197 7.04077 10.1464C6.63062 9.84858 6.03491 9.85835 5.62964 10.1708C5.51734 10.2587 4.90698 10.9277 4.2771 11.6601L3.12476 12.9931V9.03803V5.07807H10.9373H18.7498V8.5937ZM14.2673 8.73042C14.3113 8.77436 15.0291 9.62397 15.864 10.6201L17.3728 12.4218L16.9871 12.6074C15.9275 13.1054 15.0486 13.9843 14.5457 15.0585C14.3406 15.5029 14.1746 16.0498 14.1209 16.4843L14.0867 16.7724L13.3005 16.7871L12.5144 16.7968L11.1619 15.1367C10.4197 14.2236 9.81421 13.4521 9.81421 13.4277C9.81421 13.3447 13.5691 8.81831 13.7351 8.70112C13.9109 8.57417 14.1257 8.58393 14.2673 8.73042ZM6.51831 10.7226C6.58179 10.747 11.3132 16.5234 11.4451 16.7333C11.4744 16.7822 10.6296 16.7968 7.30445 16.7968H3.12476V15.4882V14.1845L4.58472 12.4999C5.39038 11.5722 6.09839 10.7861 6.16187 10.7568C6.28882 10.6884 6.39624 10.6787 6.51831 10.7226ZM20.1902 13.0273C21.7771 13.4619 22.8953 14.5898 23.3201 16.1914C23.4519 16.6943 23.447 17.7148 23.3054 18.2373C23.0173 19.2968 22.3728 20.205 21.5037 20.7665C18.7205 22.5683 15.073 20.7372 14.8582 17.4365C14.78 16.2255 15.2341 15.0439 16.113 14.1601C16.7576 13.5205 17.49 13.1298 18.3836 12.9589C18.8425 12.871 19.741 12.9052 20.1902 13.0273Z" fill="#1E2533"/>
<path d="M9.03364 5.72754C8.58442 5.85449 8.23774 6.15723 8.02778 6.61133C7.88618 6.91406 7.87153 7.43164 7.98872 7.77832C8.08637 8.07617 8.44282 8.4668 8.7602 8.63281C8.97504 8.74512 9.06782 8.76465 9.44868 8.76465C9.82954 8.76465 9.92231 8.74512 10.1372 8.63281C10.4643 8.46191 10.811 8.07129 10.9135 7.76367C11.2407 6.77734 10.5815 5.76172 9.57075 5.68848C9.3852 5.67383 9.16059 5.69336 9.03364 5.72754ZM9.86372 6.55273C10.1079 6.71875 10.2153 6.89941 10.2446 7.16797C10.3276 8.04199 9.12153 8.37891 8.73579 7.58789C8.47211 7.04102 8.84321 6.44531 9.44868 6.44531C9.63422 6.44531 9.74653 6.47461 9.86372 6.55273Z" fill="#1E2533"/>
<path d="M18.9593 13.7354C18.9007 13.7695 18.3929 14.4434 17.8265 15.2344C16.723 16.7773 16.6888 16.8408 16.9183 17.0654C17.0257 17.1777 17.0745 17.1875 17.5042 17.1875H17.9681V18.8232V20.4639L18.0902 20.5811C18.2073 20.7031 18.2171 20.7031 19.14 20.7031C20.0628 20.7031 20.0726 20.7031 20.1898 20.5811L20.3118 20.4639V18.8232V17.1875H20.7708C21.1859 17.1875 21.2347 17.1777 21.3568 17.0654C21.5911 16.8457 21.5667 16.7871 20.4534 15.2344C19.4818 13.8721 19.3157 13.6768 19.14 13.6768C19.1009 13.6768 19.0179 13.7012 18.9593 13.7354ZM19.7405 15.5664L20.3167 16.3818L20.0189 16.4062C19.5111 16.4502 19.5306 16.3721 19.5306 18.291V19.9219H19.14H18.7493V18.291C18.7493 16.3721 18.7689 16.4502 18.2611 16.4062L17.9632 16.3818L18.5394 15.5664C18.8568 15.1172 19.1253 14.751 19.14 14.751C19.1546 14.751 19.4232 15.1172 19.7405 15.5664Z" fill="#1E2533"/>
</g>
</svg>
