<svg width="25" height="25" viewBox="0 0 25 25" fill="none" xmlns="http://www.w3.org/2000/svg">
<path d="M4.03984 4.04327C2.18926 4.35577 0.953905 6.17706 1.33965 8.02277C1.37871 8.20831 1.51055 8.56964 1.6375 8.81867C1.81328 9.18488 1.93535 9.35089 2.2332 9.64874C2.44805 9.86359 2.73125 10.0882 2.8875 10.1712C3.16094 10.3128 3.23906 10.3909 3.10723 10.3909C2.98516 10.3909 2.16973 10.8157 1.87187 11.0403C1.03203 11.6605 0.431444 12.5394 0.12871 13.5892C0.0457019 13.8821 0.0261706 14.1165 0.00663937 15.1566C-0.00800906 16.2503 -0.00312625 16.3919 0.0701159 16.4603C0.167772 16.5628 0.289842 16.5677 0.416796 16.4749C0.504686 16.4114 0.509569 16.3187 0.538866 15.1663C0.56328 14.0628 0.577928 13.8968 0.680467 13.5892C1.05156 12.4368 1.83769 11.5384 2.8875 11.055C3.39531 10.8206 3.75176 10.7327 4.36699 10.6985C5.52422 10.6351 6.60332 11.0452 7.42363 11.8558C7.75566 12.1829 8.2 12.7982 8.2 12.93C8.2 12.9691 8.15605 13.1204 8.10234 13.2571C7.92168 13.7308 7.8582 14.2923 7.8582 15.3714C7.8582 16.2894 7.86797 16.387 7.94609 16.4603C8.0584 16.5628 8.15117 16.5628 8.27812 16.4749C8.36601 16.4114 8.3709 16.3187 8.40019 15.1907C8.42461 13.9847 8.42461 13.9798 8.58574 13.5159C8.91777 12.5345 9.42558 11.8753 10.2752 11.3235C10.9783 10.8646 11.8279 10.6448 12.7068 10.6985C13.2879 10.7376 13.6541 10.8255 14.1473 11.055C15.1971 11.5384 15.9832 12.4368 16.3543 13.5892C16.4568 13.8968 16.4715 14.0628 16.4959 15.1663C16.5252 16.3187 16.5301 16.4114 16.618 16.4749C16.7449 16.5628 16.867 16.5628 16.9598 16.4651C17.0281 16.4017 17.0379 16.2259 17.0379 15.3226C17.0379 14.1995 16.9939 13.804 16.7937 13.2376L16.6912 12.9349L16.7889 12.7444C16.9695 12.3929 17.4529 11.8362 17.824 11.553C18.2635 11.221 18.7664 10.9671 19.2693 10.8206C19.8162 10.6595 20.8514 10.6595 21.3982 10.8206C22.5652 11.1575 23.5613 12.0218 24.0447 13.1107C24.3084 13.6966 24.3719 14.0872 24.3963 15.2884C24.4158 16.1722 24.4354 16.4163 24.4939 16.47C24.5818 16.5628 24.7088 16.5628 24.8309 16.4749C24.9187 16.4066 24.9236 16.3382 24.9187 15.3128C24.9187 13.8724 24.7967 13.3206 24.3133 12.471C23.8006 11.5726 22.8582 10.762 21.9842 10.4593C21.8426 10.4105 21.7254 10.3568 21.7254 10.3421C21.7254 10.3275 21.8279 10.264 21.9598 10.1956C22.0867 10.1273 22.3797 9.888 22.6092 9.65851C23.2781 8.99933 23.5809 8.27667 23.5906 7.33917C23.5955 6.04035 22.907 4.92706 21.7498 4.36066C20.6023 3.79913 19.3816 3.90167 18.3318 4.65363C17.8045 5.0296 17.4187 5.54718 17.1697 6.21613C16.9793 6.71906 16.9354 7.5296 17.0574 8.0716C17.2479 8.88702 17.8094 9.67316 18.532 10.1273C18.7273 10.2542 18.8885 10.3616 18.8787 10.3714C18.8738 10.3763 18.7127 10.4446 18.5271 10.5228C17.8191 10.8157 17.1111 11.3773 16.6375 12.0071C16.5008 12.1927 16.3836 12.3441 16.3787 12.3441C16.3738 12.3441 16.2908 12.2269 16.198 12.0853C15.7391 11.4017 14.8211 10.7034 14.0105 10.4153L13.8396 10.3568L14.0057 10.264C15.0652 9.67804 15.7635 8.52081 15.7684 7.34894C15.7732 5.90363 14.826 4.59503 13.4637 4.16535C10.9002 3.3548 8.48808 5.77179 9.29863 8.33038C9.36211 8.53546 9.49883 8.84796 9.60137 9.01886C9.84062 9.42413 10.3436 9.92706 10.7293 10.1468C10.8953 10.2396 11.0271 10.3275 11.032 10.3421C11.032 10.3568 10.8807 10.4251 10.7 10.4984C9.97246 10.7962 9.23027 11.3773 8.74687 12.0267C8.62969 12.1878 8.52715 12.3196 8.51738 12.3196C8.50762 12.3196 8.40508 12.1878 8.28789 12.0267C7.81426 11.387 6.99394 10.7523 6.28594 10.4739C6.12969 10.4153 6.00273 10.3568 6.00273 10.3421C6.00273 10.3275 6.13945 10.2396 6.30547 10.1468C6.67656 9.93683 7.18926 9.42902 7.41387 9.05792C8.19023 7.74933 8.00957 6.11359 6.96465 5.0296C6.19805 4.23859 5.09941 3.86749 4.03984 4.04327ZM5.43633 4.67804C6.37383 5.00031 7.06719 5.76691 7.2918 6.71417C7.36016 7.00714 7.35527 7.01691 7.2625 7.05109C7.0916 7.1048 6.47637 7.02179 6.1248 6.89972C5.43633 6.65558 4.85039 6.138 4.53789 5.4837C4.35234 5.09308 4.22539 4.64874 4.2791 4.56085C4.32793 4.48761 5.12383 4.56574 5.43633 4.67804ZM12.9656 4.58527C13.9812 4.76593 14.9187 5.66437 15.1531 6.68488C15.2361 7.03644 15.2166 7.07062 14.9334 7.07062C14.4939 7.07062 13.8543 6.88995 13.449 6.64093C13.1609 6.46515 12.7068 6.01105 12.5213 5.70343C12.3357 5.39581 12.1551 4.89288 12.1551 4.67804C12.1551 4.53156 12.16 4.53156 12.4139 4.53156C12.5555 4.53156 12.8045 4.55597 12.9656 4.58527ZM20.8904 4.6048C21.408 4.72687 21.8084 4.95636 22.2234 5.36163C22.6336 5.76202 22.8875 6.21124 22.9998 6.71417C23.0779 7.05597 23.0389 7.08527 22.5652 7.0462C21.3885 6.94855 20.4363 6.20148 20.0896 5.10285C19.909 4.53644 19.909 4.53156 20.2752 4.53156C20.4412 4.53156 20.7195 4.56574 20.8904 4.6048ZM3.75664 4.80988C3.75664 5.03937 4.03008 5.73761 4.24492 6.06964C4.67461 6.72882 5.45098 7.29523 6.18828 7.48566C6.35918 7.5296 6.69121 7.57355 6.9207 7.58331L7.34551 7.59796L7.33086 7.73956C7.24297 8.5257 6.58379 9.44367 5.85625 9.79523C5.01641 10.2005 4.06426 10.2005 3.29766 9.79035C2.94121 9.59992 2.45293 9.15558 2.23808 8.82355C1.72051 8.013 1.6668 6.94855 2.11113 6.05011C2.33086 5.59601 2.84355 5.0882 3.3123 4.8587C3.50762 4.75617 3.69316 4.67804 3.71269 4.67804C3.73711 4.67804 3.75664 4.73663 3.75664 4.80988ZM11.6619 4.98077C11.6961 5.15167 11.823 5.49347 11.9451 5.74738C12.4725 6.84601 13.6004 7.5589 14.826 7.57843L15.2312 7.58331L15.202 7.75421C15.0262 8.83331 14.1912 9.75128 13.1463 10.0198C12.2088 10.264 11.2127 9.98566 10.5145 9.2923C9.61113 8.40363 9.4207 7.10968 10.0164 5.98175C10.2459 5.55206 10.7342 5.07843 11.1736 4.8587C11.3738 4.76105 11.5496 4.67804 11.5643 4.67804C11.5838 4.67804 11.6277 4.81476 11.6619 4.98077ZM19.4598 4.80988C19.5477 5.21027 19.6502 5.51788 19.8016 5.80109C20.368 6.88019 21.4471 7.55402 22.6434 7.57843L23.0535 7.58331L23.0193 7.82257C22.9656 8.25226 22.6971 8.80402 22.3553 9.19464C22.1209 9.4632 21.6326 9.79035 21.2566 9.93195C20.8514 10.0882 20.1482 10.1419 19.7088 10.0491C19.2596 9.95636 18.6932 9.64874 18.3465 9.30206C17.8045 8.76984 17.5262 8.09113 17.5262 7.31476C17.5262 6.51398 17.7654 5.94757 18.3562 5.36163C18.6004 5.11261 18.825 4.94171 19.0398 4.83429C19.2156 4.75128 19.3719 4.67804 19.3914 4.67804C19.4109 4.67804 19.4402 4.73663 19.4598 4.80988Z" fill="black"/>
<path d="M12.0221 14.058C11.6803 14.097 11.0553 14.2777 10.7965 14.4144C10.6794 14.4779 10.6647 14.473 10.5963 14.3265C10.5426 14.2191 10.4792 14.1703 10.3815 14.1605C10.1667 14.1361 10.1032 14.224 10.1032 14.5511V14.8441L9.74673 15.225C9.1022 15.9086 8.7897 16.6654 8.75064 17.642C8.73111 18.1302 8.74087 18.3011 8.82876 18.6674C9.25845 20.4642 10.8844 21.68 12.6911 21.558C13.2282 21.5189 13.5993 21.4164 14.0827 21.182C15.3669 20.5521 16.1628 19.2631 16.1628 17.808C16.1628 16.7582 15.7965 15.8549 15.0885 15.1517L14.7907 14.8636V14.5658C14.7907 14.2386 14.737 14.1508 14.5465 14.1508C14.3903 14.1508 14.3024 14.2338 14.3024 14.3802C14.3024 14.4437 14.2926 14.4926 14.2829 14.4926C14.2731 14.4926 14.1266 14.4291 13.9557 14.3509C13.404 14.1019 12.6422 13.9847 12.0221 14.058ZM12.8717 14.5951C14.1657 14.7758 15.2204 15.7328 15.5573 17.0316C15.6598 17.4467 15.6598 18.1791 15.5475 18.5941C15.1081 20.2787 13.4626 21.3138 11.7877 20.9623C10.8942 20.7767 10.0251 20.098 9.62466 19.2777C9.32681 18.6722 9.25845 18.3451 9.28287 17.6664C9.31705 16.7582 9.59048 16.1283 10.2301 15.4935C10.7965 14.9271 11.5534 14.5951 12.3835 14.5463C12.442 14.5463 12.6618 14.5658 12.8717 14.5951Z" fill="black"/>
<path d="M12.2839 15.8889C12.2204 15.9524 12.2058 16.0989 12.2058 16.7434V17.5198H11.5076C10.9558 17.5198 10.7898 17.5344 10.7019 17.5979C10.5798 17.6809 10.5554 17.9153 10.6579 17.9983C10.697 18.0325 11.0144 18.0618 11.4538 18.0667L12.1814 18.0813L12.196 18.8577C12.2009 19.3313 12.2302 19.6633 12.2595 19.7024C12.3474 19.8049 12.5818 19.7805 12.6648 19.6585C12.7283 19.5706 12.7429 19.3997 12.7429 18.804V18.0569H13.4704C14.1736 18.0569 14.2077 18.052 14.2761 17.9495C14.3786 17.803 14.3738 17.7346 14.2566 17.6174C14.1687 17.5296 14.0954 17.5198 13.4558 17.5198H12.7478L12.7331 16.7337C12.7185 16.0257 12.7087 15.9426 12.6257 15.8792C12.4988 15.7913 12.3767 15.7913 12.2839 15.8889Z" fill="black"/>
<path d="M2.30054 14.2097C2.21753 14.2927 2.21753 16.3533 2.30054 16.4363C2.37378 16.5095 2.59839 16.5095 2.67163 16.4363C2.75464 16.3533 2.75464 14.2927 2.67163 14.2097C2.63745 14.1755 2.55444 14.1511 2.48608 14.1511C2.41772 14.1511 2.33472 14.1755 2.30054 14.2097Z" fill="black"/>
<path d="M6.47266 14.2586C6.40918 14.3514 6.39453 14.5369 6.39453 15.323C6.39453 16.1092 6.40918 16.2947 6.47266 16.3875C6.55566 16.5047 6.77539 16.534 6.87305 16.4363C6.95605 16.3533 6.95605 14.2928 6.87305 14.2098C6.77539 14.1121 6.55566 14.1414 6.47266 14.2586Z" fill="black"/>
<path d="M18.0137 14.2431C17.9844 14.3016 17.9648 14.7362 17.9648 15.3222C17.9648 15.9081 17.9844 16.3427 18.0137 16.4013C18.0771 16.5136 18.3164 16.5282 18.4238 16.4159C18.4922 16.3524 18.502 16.1864 18.502 15.3417C18.502 14.7411 18.4824 14.3016 18.4531 14.2431C18.4189 14.1796 18.3506 14.1503 18.2334 14.1503C18.1162 14.1503 18.0479 14.1796 18.0137 14.2431Z" fill="black"/>
<path d="M22.2224 14.2098C22.1394 14.2928 22.1394 16.3533 22.2224 16.4363C22.3201 16.534 22.5398 16.5047 22.6228 16.3875C22.6863 16.2947 22.7009 16.1092 22.7009 15.323C22.7009 14.5369 22.6863 14.3514 22.6228 14.2586C22.5398 14.1414 22.3201 14.1121 22.2224 14.2098Z" fill="black"/>
</svg>
