<svg width="360" height="333" viewBox="0 0 360 333" fill="none" xmlns="http://www.w3.org/2000/svg">
<mask id="mask0" style="mask-type:alpha" maskUnits="userSpaceOnUse" x="-15" y="-28" width="387" height="361">
<path fill-rule="evenodd" clip-rule="evenodd" d="M372 -28H-15V333C8.73124 318.512 86.3765 307.89 178.5 307.89C270.623 307.89 348.269 318.512 372 333V-28Z" fill="#C4C4C4"/>
</mask>
<g mask="url(#mask0)">
<path d="M-24.676 -72.9897H392.961V312.244C223 285 136.5 282 -24.676 312.244V-72.9897Z" fill="url(#paint0_linear)"/>
<g filter="url(#filter0_f)">
<ellipse cx="163.987" cy="-10.4515" rx="48.5766" ry="189.692" fill="#FFFBF7"/>
</g>
<g filter="url(#filter1_f)">
<ellipse cx="373.726" cy="16.0051" rx="48.5766" ry="189.692" fill="#FFFBF7" fill-opacity="0.75"/>
</g>
<g filter="url(#filter2_f)">
<ellipse cx="95.6579" cy="96.8303" rx="48.5766" ry="189.692" fill="#FFFAF6"/>
</g>
</g>
<defs>
<filter id="filter0_f" x="-84.5891" y="-400.144" width="497.153" height="779.384" filterUnits="userSpaceOnUse" color-interpolation-filters="sRGB">
<feFlood flood-opacity="0" result="BackgroundImageFix"/>
<feBlend mode="normal" in="SourceGraphic" in2="BackgroundImageFix" result="shape"/>
<feGaussianBlur stdDeviation="100" result="effect1_foregroundBlur"/>
</filter>
<filter id="filter1_f" x="125.15" y="-373.687" width="497.153" height="779.384" filterUnits="userSpaceOnUse" color-interpolation-filters="sRGB">
<feFlood flood-opacity="0" result="BackgroundImageFix"/>
<feBlend mode="normal" in="SourceGraphic" in2="BackgroundImageFix" result="shape"/>
<feGaussianBlur stdDeviation="100" result="effect1_foregroundBlur"/>
</filter>
<filter id="filter2_f" x="-152.919" y="-292.862" width="497.153" height="779.384" filterUnits="userSpaceOnUse" color-interpolation-filters="sRGB">
<feFlood flood-opacity="0" result="BackgroundImageFix"/>
<feBlend mode="normal" in="SourceGraphic" in2="BackgroundImageFix" result="shape"/>
<feGaussianBlur stdDeviation="100" result="effect1_foregroundBlur"/>
</filter>
<linearGradient id="paint0_linear" x1="-18.7291" y1="-56.3023" x2="420.636" y2="-6.48507" gradientUnits="userSpaceOnUse">
<stop stop-color="#FDF8F4"/>
<stop offset="1" stop-color="#F2E3DF"/>
</linearGradient>
</defs>
</svg>
