<svg width="35" height="26" viewBox="0 0 35 26" fill="none" xmlns="http://www.w3.org/2000/svg">
<path d="M29.5398 0.789565C27.5067 1.86427 24.7788 3.37043 22.6173 4.61905C21.6456 5.17613 20.6985 5.72068 20.5047 5.81171C20.1724 5.981 20.1511 6.01513 19.9986 6.67408C19.7354 7.80021 19.4903 9.28134 19.5592 9.4167C19.5906 9.47823 20.0773 9.7185 20.6318 9.93974C21.555 10.3218 21.7999 10.4528 21.6613 10.5002C18.9239 11.5617 17.457 11.9681 15.0787 12.3351C11.664 12.8583 8.20071 12.6776 4.97605 11.7942C4.25184 11.5897 3.75705 11.5008 3.59057 11.5391L3.344 11.6027L1.90152 16.0422C0.380572 20.7232 0.386608 20.7047 0.813841 20.8435C0.943868 20.8857 1.05951 21.067 1.14219 21.3814C1.59972 23.0703 2.25068 25.0171 2.3965 25.1056C2.77521 25.3621 7.24337 24.8835 10.0862 24.2875C14.0637 23.4544 17.5102 22.2331 21.7224 20.1721C25.8268 18.1583 28.1086 16.4764 29.3416 14.5461C29.5125 14.2731 29.7012 13.9134 29.7555 13.7462C29.8099 13.579 29.8737 13.4458 29.8923 13.4518C29.9109 13.4578 30.2273 13.6531 30.5935 13.885C31.5834 14.5044 32.6737 14.9408 32.9199 14.8154C33.169 14.6808 33.8803 13.1868 34.1052 12.305C34.5342 10.6371 33.8057 5.80029 32.687 2.85951C32.0821 1.27674 31.505 0.113761 31.2914 0.0443528C31.1428 -0.00393106 30.6195 0.216219 29.5398 0.789565ZM31.7409 3.11684C32.2135 4.34855 32.655 5.96035 32.9003 7.35438C33.0973 8.48627 33.3036 10.8534 33.2052 10.9036C33.1805 10.9161 32.8673 10.7424 32.5104 10.5135C31.5919 9.92756 30.1539 9.26524 29.8019 9.27409C29.5672 9.26969 29.2878 9.49726 28.2916 10.4776C25.4594 13.2847 22.8393 15.1545 19.2612 16.9389C14.0586 19.52 8.58858 20.6486 3.04232 20.2738C2.49227 20.2285 1.91134 20.1835 1.74137 20.1694L1.44464 20.1346L2.7655 16.3538L4.08335 12.5823L4.81034 12.7466C8.24117 13.5328 11.6457 13.7046 14.9806 13.2377C17.5195 12.8818 19.3809 12.3673 21.705 11.3769C22.2653 11.1379 22.8104 10.9454 22.9186 10.96C23.0175 10.9716 23.2021 10.8776 23.3247 10.7531C23.4503 10.6194 23.7728 10.3853 24.0403 10.2258C25.0609 9.61273 26.0604 8.24322 25.7822 7.80371C25.6916 7.67161 25.6203 7.63818 25.4662 7.67023C25.3399 7.71134 25.247 7.68116 25.2094 7.60733C25.178 7.5458 24.4187 7.19641 23.5174 6.84193C22.6253 6.49047 21.8755 6.17498 21.86 6.15966C21.8068 6.0705 26.1736 3.62852 29.1297 2.08357L30.926 1.13728L31.1554 1.66363C31.2811 1.94062 31.5486 2.60256 31.7409 3.11684ZM21.7746 7.11766L22.3319 7.29873L21.3862 7.61782C20.8656 7.7978 20.428 7.9123 20.4062 7.88467C20.3966 7.85078 20.4407 7.55706 20.5092 7.21992L20.6436 6.61669L20.932 6.772C21.0871 6.86347 21.4681 7.01808 21.7746 7.11766ZM23.374 8.2945C22.0206 8.60433 20.9393 8.96151 20.8941 9.10083C20.876 9.15655 20.7369 9.14217 20.5757 9.06927C20.3496 8.97526 20.2964 8.8861 20.3071 8.66367C20.3205 8.40106 20.3728 8.36669 21.1308 8.15094C21.5838 8.02088 22.1814 7.82487 22.474 7.71456C22.9883 7.52227 23.0284 7.52506 23.7807 7.76949L24.5609 8.02299L23.374 8.2945ZM24.1277 9.13496C23.8637 9.34696 23.4428 9.63119 23.203 9.76889L22.7602 10.0255L22.3197 9.76942C22.0778 9.6292 21.7492 9.4711 21.5851 9.4075C21.325 9.323 21.3958 9.29467 22.2101 9.15878C22.719 9.07771 23.459 8.91768 23.8688 8.79413C24.2756 8.67986 24.6025 8.62179 24.609 8.66498C24.6155 8.70816 24.3917 8.92295 24.1277 9.13496ZM30.9095 10.7635C31.1111 10.87 31.2601 10.9801 31.2388 11.0142C31.2081 11.0453 30.9281 11.1803 30.608 11.3124L30.0354 11.5576L29.9049 11.0429C29.7458 10.4264 29.8647 10.2186 30.2585 10.4287C30.4073 10.5079 30.6987 10.6539 30.9095 10.7635ZM32.6127 11.7789C33.2768 12.2001 33.3297 12.2584 33.2259 12.4197C33.1619 12.5221 32.9668 12.8695 32.7872 13.2013L32.4768 13.809L31.8663 13.5387C30.7943 13.0775 30.7848 13.0436 31.7181 12.7307C32.1649 12.5884 32.5466 12.4249 32.5616 12.3784C32.5767 12.332 32.5389 12.2273 32.4857 12.1381C32.3701 11.9568 31.9043 12.0314 30.817 12.4071C30.472 12.5209 30.1729 12.5881 30.1355 12.5451C30.1044 12.5145 30.1309 12.3382 30.2068 12.1678C30.3161 11.9261 30.4543 11.8169 30.9316 11.6435C31.2581 11.5236 31.5597 11.3855 31.6149 11.3418C31.7315 11.2359 31.7749 11.2603 32.6127 11.7789ZM29.2706 11.6993L29.1947 12.2805L28.019 13.2128C26.788 14.1888 24.3265 16.6132 23.185 17.9776L22.527 18.7701L20.4442 19.8081C18.3583 20.8554 16.1482 21.811 16.1995 21.6531C16.2146 21.6067 16.3437 21.5254 16.479 21.4565C16.873 21.2867 18.1602 20.3906 20.5065 18.6681C23.6177 16.3931 25.1001 15.1805 25.1381 14.9054C25.1616 14.7385 25.4098 14.4802 26.0239 14.0123C26.9419 13.3043 29.0981 11.3455 29.1554 11.169C29.1735 11.1133 29.2257 11.0789 29.2722 11.094C29.3186 11.1091 29.3237 11.3777 29.2706 11.6993ZM28.2313 14.3291C27.5192 15.3197 26.3472 16.3353 24.7 17.3917C24.322 17.6385 24.0236 17.7983 24.0327 17.7704C24.1021 17.5568 28.6266 13.5232 28.6308 13.6683C28.6343 13.7208 28.4574 14.0124 28.2313 14.3291ZM19.9328 18.3482C18.0141 19.8605 16.3771 21.0434 15.3963 21.6284C15.0274 21.8473 14.6587 22.0972 14.5884 22.1873C14.4354 22.3737 10.9041 23.4135 10.9524 23.2649C10.9615 23.237 11.6162 22.8337 12.4063 22.3614C14.2879 21.2477 16.0582 20.1286 17.2595 19.3073C18.0767 18.7514 21.5215 16.9032 21.5993 16.9798C21.6149 16.9951 20.8599 17.6123 19.9328 18.3482ZM15.6502 19.6777C14.0338 20.7338 12.0791 21.9778 11.4643 22.3531C10.3545 23.0193 10.3791 23.0067 10.4579 23.2069C10.4957 23.3116 10.5087 23.398 10.4841 23.4105C10.4625 23.4138 10.0432 23.5034 9.5591 23.6028C8.65869 23.7826 5.60176 24.2474 5.98393 24.1457C7.46316 23.733 8.97441 23.0637 10.2593 22.2696C11.0431 21.7849 12.2467 20.8617 12.298 20.7038C12.3946 20.4066 11.9569 20.5211 11.3456 20.9488C10.3872 21.6232 8.24625 22.745 6.77772 23.346C5.57085 23.8369 5.33427 23.9962 5.5516 24.149C5.60129 24.1857 5.09235 24.2667 4.40717 24.3214C3.40715 24.3969 3.13224 24.3897 2.96134 24.252C2.83712 24.1603 2.74354 24.0375 2.74934 23.9881C2.75816 23.9293 3.22902 23.7127 3.80807 23.5106C5.06463 23.0564 8.02675 21.4928 8.20667 21.1919C8.30719 21.0089 8.58767 20.9358 9.89579 20.7653C11.6019 20.5392 13.7879 20.0687 15.1865 19.6195C15.6764 19.4706 16.0955 19.3501 16.1171 19.3468C16.1357 19.3529 15.9237 19.4996 15.6502 19.6777ZM7.75808 21.0872C7.75204 21.1058 6.56144 21.7047 5.11218 22.4044L2.47534 23.6937L2.28956 23.2226L2.10075 22.7608L2.48152 22.4738C2.69024 22.3054 3.27416 21.9304 3.76916 21.6394C4.51004 21.1922 4.75638 21.0977 5.09932 21.1167C5.34033 21.1334 6.00415 21.1129 6.57834 21.0838C7.65568 21.0232 7.7792 21.0222 7.75808 21.0872ZM3.02756 21.5833C2.62822 21.8643 2.22284 22.1638 2.11836 22.2325C1.95259 22.3635 1.92449 22.3236 1.68181 21.68C1.54619 21.3073 1.45422 20.9899 1.47883 20.9774C1.50344 20.9649 2.01309 20.9764 2.61562 21.0182C3.21187 21.0476 3.71549 21.0778 3.72477 21.0808C3.74637 21.0775 3.42388 21.3116 3.02756 21.5833Z" fill="#FED910"/>
</svg>
