<svg width="28" height="32" fill="none" xmlns="http://www.w3.org/2000/svg"><path d="M3.315.114C2.093.464 1.07 1.254.525 2.262-.035 3.29 0 2.25 0 15.966 0 29.682-.034 28.643.525 29.67c.442.82 1.14 1.453 2.044 1.854 1.119.5.414.476 11.4.476 8.68 0 9.854-.013 10.323-.1 1.72-.32 3.142-1.56 3.584-3.113.117-.432.124-.92.124-10.228V8.782l-.2-.238c-.297-.35-8.79-8.411-8.942-8.487-.09-.043-2.617-.062-7.65-.056-6.975 0-7.541.006-7.893.113zM17.608 4.14c0 2.931.028 3.138.428 3.827.428.726 1.14 1.284 2.03 1.597l.477.17 2.886.018 2.88.019v9.069c0 5.906-.028 9.188-.07 9.407-.207.99-1.022 1.804-2.092 2.092-.304.082-1.588.094-10.136.094-9.557 0-9.792 0-10.227-.125-.89-.25-1.643-.934-1.92-1.741-.137-.395-.137-.614-.137-12.602 0-12.044 0-12.207.138-12.608.269-.795 1.022-1.478 1.906-1.735.386-.113.738-.119 7.125-.119l6.712-.006V4.14zm5.006 1.679l2.458 2.348-2.085.02c-2.065.012-2.085.012-2.437-.132-.477-.2-.801-.47-1.009-.84-.172-.3-.172-.307-.193-2.399l-.02-2.098.414.376c.227.207 1.519 1.434 2.872 2.725z" fill="#FA7846"/><path d="M13.624 10.717c-.173.088-1.264 1.109-2.845 2.643-2.03 1.986-2.569 2.543-2.603 2.712a.829.829 0 00.331.79c.214.144.656.169.898.056.097-.05.96-.858 1.926-1.804l1.754-1.716.035 4.309c.027 3.276.055 4.334.117 4.44.152.239.47.395.794.395.325-.006.497-.094.69-.357.118-.163.125-.42.125-4.484 0-2.368.02-4.303.055-4.297.028 0 .843.783 1.81 1.729 1.18 1.159 1.836 1.76 2.002 1.816.504.194 1.105-.182 1.105-.689-.007-.144-.042-.32-.09-.394-.18-.288-5.193-5.099-5.407-5.193-.29-.125-.373-.119-.697.044zM6.587 25.21c-.656.295-.545 1.216.166 1.403.18.05 2.424.063 7.402.05 6.884-.018 7.154-.024 7.34-.137.387-.238.497-.664.256-1.021-.277-.42.207-.395-7.748-.395-6.27 0-7.23.013-7.416.1z" fill="#FA7846"/></svg>